<?xml version="1.0" standalone="no"?><!DOCTYPE svg PUBLIC "-//W3C//DTD SVG 1.1//EN" "http://www.w3.org/Graphics/SVG/1.1/DTD/svg11.dtd"><svg t="1565498198345" class="icon" viewBox="0 0 1024 1024" version="1.1" xmlns="http://www.w3.org/2000/svg" p-id="6246" xmlns:xlink="http://www.w3.org/1999/xlink" width="200" height="200"><defs><style type="text/css"></style></defs><path d="M149.78 155.25q6.1-6.1 14.24-6.1t15.27 5.09Q185.4 165.43 306 249.9t303.79 128.24q126.19 24.42 236.11 36.63 109.91 12.22 178.11 17.3-1.02-20.35-24.93-32.56-23.92-12.21-81.93-38.68-36.64-16.28-87.53-46.81l-108.89-65.14q-37.66 28.5-75.83 46.31-38.16 17.81-51.39 21.88-8.14 3.06-15.77-0.5-7.63-3.56-10.68-11.7-3.06-8.14 0.5-15.77 3.56-7.64 11.7-10.69l21.38-9.16q19.33-8.14 44.78-21.37 20.35-11.2 35.62-22.39-28.5-16.29-57-31.55-39.69 19.33-78.36 33.58-36.64 12.21-61.06 19.34L457.14 255q-8.14 2.04-15.26-2.04-7.13-4.07-9.67-12.72-2.55-8.65 2.04-15.78 4.58-7.13 12.72-10.18 3.05 0 42.24-12.21 39.19-12.21 89.06-32.57-45.8-23.41-83.46-36.64-92.61-31.55-193.88-36.13-101.26-4.58-170.46 21.89L31.75 6.67Q26.66 0.56 19.54 0.05 12.42-0.46 6.82 4.12 1.22 8.7 0.2 16.34q-1.02 7.63 4.07 13.73l98.72 112.97q-14.25 13.23 11.7 142.48 25.96 129.25 274.27 222.88 236.11 65.14 404.03 37.66 167.93-27.48 216.78-74.29-70.22-4.07-178.1-16.79-107.88-12.73-230.01-36.14-191.33-45.79-316.51-132.3-125.18-86.51-135.35-101.77-5.09-6.11-5.6-14.25-0.51-8.14 5.6-15.27z m79.38 625.9h-42.75l-17.3-43.76H90.75l-16.29 43.76H32.74l76.33-195.4h41.72l78.37 195.4z m-73.28-77.34l-26.46-72.26-26.46 72.26h52.92z m92.61-64.12h35.62v20.35q6.11-10.17 17.81-16.78 11.7-6.62 25.95-6.62 24.42 0 41.72 19.33 17.3 19.34 17.3 54.45t-17.3 54.96q-17.3 19.85-41.72 19.85-12.22 0-21.38-5.09-9.15-5.09-20.36-16.28v71.24h-37.66V639.7z m37.66 68.19q0 24.42 9.16 35.62 9.16 11.2 22.9 11.2 13.74 0 22.39-10.17 8.65-10.18 8.65-33.59 0-23.41-9.16-34.1-9.16-10.69-22.39-10.69t-22.39 10.69q-9.16 10.68-9.16 31.04z m158.77-25.45l-33.59-6.1q5.09-20.36 19.34-30.02 14.25-9.67 41.72-9.67 25.45 0 37.66 5.6 12.21 5.6 17.3 14.75 5.09 9.16 5.09 33.59l-1.02 44.78q0 18.32 2.03 26.97 2.04 8.65 7.13 18.82h-37.65l-5.09-15.26q-9.16 9.16-20.35 14.25-11.19 5.09-23.42 5.09-21.37 0-34.09-12.21-12.72-12.21-12.72-30.53 0-12.21 5.6-21.37 5.59-9.16 16.28-14.25 10.69-5.09 30.02-9.16 26.46-4.07 36.64-9.16v-3.05q0-11.2-5.59-15.78-5.6-4.58-20.87-4.58-9.16 0-14.75 4.07-5.6 4.08-9.67 13.23z m50.88 30.54q-8.14 3.05-23.41 6.11-15.26 3.05-20.35 6.1-7.12 6.11-7.12 13.74t5.59 13.74q5.6 6.11 15.26 6.11 9.67 0 18.83-7.12 7.12-5.09 9.16-12.21 2.03-5.09 2.03-18.32v-8.14z m197.44-31.55l-37.66 7.12q-1.01-11.19-7.63-16.79t-17.82-5.6q-14.25 0-22.39 9.67t-8.14 32.06q0 25.44 8.65 35.62 8.65 10.18 22.9 10.18 10.18 0 17.3-6.11 7.12-6.11 9.16-20.36l37.66 6.11q-6.11 25.44-22.39 38.67t-43.76 13.23q-31.55 0-49.86-19.85-18.32-19.85-18.32-54.96t18.83-54.45q18.82-19.33 50.37-19.33 25.44 0 40.71 11.2 15.27 11.19 22.39 33.58z m65.13-95.67v72.26q18.32-21.37 43.77-21.37 13.23 0 23.41 4.58 10.17 4.58 15.77 12.21 5.6 7.63 7.63 16.79 2.04 9.16 2.04 28.5v82.43h-37.66v-74.29q0-22.39-2.54-28.5-2.55-6.11-7.63-9.67-5.08-3.56-13.74-3.56-8.65 0-16.28 4.58-7.63 4.58-11.2 13.74-3.56 9.16-3.56 27.48v70.22h-36.63v-195.4h36.63z m212.71 150.62l36.64 6.11q-7.13 20.36-22.39 31.55-15.27 11.19-38.68 11.19-37.65 0-54.95-24.42-14.25-19.34-14.25-48.85 0-35.62 18.32-55.47t46.81-19.85q31.55 0 49.87 20.86 18.32 20.86 17.3 63.61h-93.63q0 17.3 8.65 26.46t21.88 9.16q9.16 0 15.27-5.09 6.11-5.09 9.16-15.27z m2.03-37.65q-1.01-16.29-8.64-24.94-7.63-8.65-19.85-8.65-12.22 0-20.36 9.16-8.14 9.16-7.12 24.43h55.97z" fill="#666666" p-id="6247"></path></svg>