<?xml version="1.0" standalone="no"?><!DOCTYPE svg PUBLIC "-//W3C//DTD SVG 1.1//EN" "http://www.w3.org/Graphics/SVG/1.1/DTD/svg11.dtd"><svg t="1565498669086" class="icon" viewBox="0 0 1024 1024" version="1.1" xmlns="http://www.w3.org/2000/svg" p-id="7747" xmlns:xlink="http://www.w3.org/1999/xlink" width="200" height="200"><defs><style type="text/css"></style></defs>
<path d="M863.232 306.688 707.584 306.688 632.32 428.032 558.592 306.688 465.408 306.688 465.408 306.176 69.12 306.176 69.12 404.48 464.896 404.48 555.008 553.984 465.408 699.904 465.408 699.904 244.224 699.904 244.224 798.208 465.408 798.208 465.408 797.696 561.152 797.696 632.32 681.472 702.976 797.696 856.576 797.696 710.144 556.032Z M465.408 601.088 465.408 502.784 69.12 502.784 69.12 559.616 69.12 601.088 69.12 798.208 230.912 798.208 230.912 601.088Z" p-id="7749"></path>
</svg>