<?xml version="1.0" standalone="no"?><!DOCTYPE svg PUBLIC "-//W3C//DTD SVG 1.1//EN" "http://www.w3.org/Graphics/SVG/1.1/DTD/svg11.dtd"><svg t="1565498669086" class="icon" viewBox="0 0 1024 1024" version="1.1" xmlns="http://www.w3.org/2000/svg" p-id="7747" xmlns:xlink="http://www.w3.org/1999/xlink" width="200" height="200"><defs><style type="text/css"></style></defs><path d="M863.232 306.688 707.584 306.688 632.32 428.032 558.592 306.688 465.408 306.688 465.408 306.176 69.12 306.176 69.12 404.48 464.896 404.48 555.008 553.984 465.408 699.904 465.408 699.904 244.224 699.904 244.224 798.208 465.408 798.208 465.408 797.696 561.152 797.696 632.32 681.472 702.976 797.696 856.576 797.696 710.144 556.032Z" p-id="7748"></path><path d="M465.408 601.088 465.408 502.784 69.12 502.784 69.12 559.616 69.12 601.088 69.12 798.208 230.912 798.208 230.912 601.088Z" p-id="7749"></path><path d="M951.296 267.776l-3.584 0c0 9.728-4.096 18.432-10.24 24.576-6.144 6.144-14.848 10.24-24.576 10.24-9.728 0-18.432-4.096-24.576-10.24-6.144-6.144-10.24-14.848-10.24-24.576s4.096-18.432 10.24-24.576c6.144-6.144 14.848-10.24 24.576-10.24 9.728 0 18.432 4.096 24.576 10.24 6.144 6.144 10.24 14.848 10.24 24.576L951.296 267.776l3.584 0c0-23.04-18.944-41.984-41.984-41.984-23.04 0-41.984 18.944-41.984 41.984s18.944 41.984 41.984 41.984c23.04 0 41.984-18.944 41.984-41.984C954.88 267.776 951.296 267.776 951.296 267.776z" p-id="7750"></path><path d="M934.912 292.864l-7.68 0-8.192-14.336c-1.536-3.072-3.072-4.608-4.608-5.632-1.536-1.024-3.072-1.536-5.12-1.536l-4.608 0 0 21.504-6.656 0 0-50.688 15.36 0c5.12 0 8.704 1.024 11.776 3.584 2.56 2.56 4.096 5.632 4.096 10.24 0 7.168-3.584 11.776-11.264 13.824l0 0c1.536 0.512 2.56 1.536 3.584 2.56 1.024 1.024 2.56 3.072 4.096 5.632L934.912 292.864zM904.704 247.808l0 17.92 7.68 0c3.072 0 5.632-1.024 7.168-2.56 2.048-1.536 2.56-4.096 2.56-6.656 0-2.56-1.024-4.608-2.56-6.144-1.536-1.536-4.096-2.048-7.68-2.048L904.704 248.32z" p-id="7751"></path></svg>