<?xml version="1.0" standalone="no"?><!DOCTYPE svg PUBLIC "-//W3C//DTD SVG 1.1//EN" "http://www.w3.org/Graphics/SVG/1.1/DTD/svg11.dtd"><svg t="1580705319663" class="icon" viewBox="0 0 1592 1024" version="1.1" xmlns="http://www.w3.org/2000/svg" p-id="2721" xmlns:xlink="http://www.w3.org/1999/xlink" width="310.9375" height="200"><defs><style type="text/css"></style></defs><path d="M1536 804.977778h-85.902222V204.231111a56.888889 56.888889 0 0 0-56.888889-56.888889H211.626667V56.888889a56.888889 56.888889 0 0 1 56.888889-56.888889H1536a56.888889 56.888889 0 0 1 56.888889 56.888889v691.2a56.888889 56.888889 0 0 1-56.888889 56.888889z m-156.444444-527.928889V967.111111a56.888889 56.888889 0 0 1-56.888889 56.888889H56.888889a56.888889 56.888889 0 0 1-56.888889-56.888889V277.048889a56.888889 56.888889 0 0 1 56.888889-56.888889h1265.777778a56.888889 56.888889 0 0 1 56.888889 56.888889zM358.968889 463.644444H277.617778v158.151112H114.915556V463.644444H33.564444v391.964445h81.351112V694.044444h162.702222v161.564445h81.351111V463.644444z m353.28 0H412.444444v68.266667h109.226667v323.697778h81.351111V531.911111h109.226667v-68.266667z m316.302222 0h-299.804444v68.266667h108.657777v323.697778h81.92V531.911111h109.226667v-68.266667z m183.751111 0H1080.888889v391.964445h81.351111v-136.533333h42.097778a156.330667 156.330667 0 0 0 107.52-35.271112 120.092444 120.092444 0 0 0 43.235555-96.142222c0-83.057778-47.786667-124.017778-142.791111-124.017778z m-14.791111 191.146667h-35.271111V528.497778h35.84a58.936889 58.936889 0 0 1 71.111111 62.008889 60.131556 60.131556 0 0 1-71.68 64.284444z" p-id="2722"></path></svg>