<?xml version="1.0" standalone="no"?><!DOCTYPE svg PUBLIC "-//W3C//DTD SVG 1.1//EN" "http://www.w3.org/Graphics/SVG/1.1/DTD/svg11.dtd"><svg t="1565498433548" class="icon" viewBox="0 0 1970 1024" version="1.1" xmlns="http://www.w3.org/2000/svg" p-id="6996" xmlns:xlink="http://www.w3.org/1999/xlink" width="384.765625" height="200"><defs><style type="text/css"></style></defs><path d="M1401.108 171.323l-11.816-23.63c-4.923-6.893-11.815-11.816-15.754-20.678h-0.984v-0.984c6.892-1.97 13.784-1.97 20.677-1.97 3.938 3.939 10.83 6.893 13.784 10.831 1.97 3.939 2.954 6.893 5.908 9.846 0 11.816-2.954 19.693-9.846 24.616l-1.97 1.97zM1909.169 678.4c-18.707-11.815-40.369-18.708-60.061-30.523-10.831-6.892-21.662-14.77-31.508-22.646-9.846-6.893-19.692-20.677-26.585-30.523-2.953-4.923-3.938-11.816-7.877-15.754 0.985-8.862 12.8-8.862 20.677-12.8 25.6-10.83 56.123-14.77 96.493-13.785-0.985-9.846-25.6-22.646-34.462-28.554-15.754-10.83-32.492-23.63-50.215-33.477-8.862-4.923-24.616-9.846-34.462-13.784-13.784-5.908-43.323-10.83-51.2-21.662-14.769-19.692-24.615-43.323-35.446-65.969-10.83-23.63-23.63-48.246-34.461-71.877-4.924-11.815-7.877-22.646-13.785-33.477-36.43-69.907-89.6-128-155.57-168.369-21.66-13.785-45.292-25.6-71.876-33.477-14.77-4.923-32.493-1.97-49.231-5.908h-9.846c-8.862-2.953-16.739-11.815-23.63-16.738-15.755-9.846-30.524-17.723-49.232-24.615-6.892-2.954-25.6-9.847-31.507-4.924-3.939 0.985-5.908 2.954-6.893 6.893-3.938 5.907 0 14.769 1.97 20.677 6.892 15.754 17.723 25.6 27.569 38.4 8.861 11.815 18.707 24.615 24.615 38.4 12.8 27.569 18.708 58.092 30.523 85.661 4.923 10.831 11.816 22.646 17.723 31.508 5.908 6.892 14.77 12.8 17.723 22.646 5.908 9.846-8.861 42.339-12.8 53.17-12.8 40.369-9.846 96.492 4.923 131.938 5.908 13.784 11.816 29.538 27.57 33.477 0.984-0.985 0 0 1.969-0.985 2.954-26.585 4.923-53.17 13.785-73.846 5.907-13.785 16.738-22.646 23.63-33.477 4.923 2.954 4.923 11.815 7.877 17.723 6.893 15.754 13.785 32.492 21.662 47.262 16.738 31.507 34.461 62.03 55.138 89.6 6.893 9.846 16.739 20.677 25.6 29.538 3.939 3.939 8.862 5.908 11.816 9.846h0.984v0.985c-14.769-4.923-24.615-20.677-36.43-29.539-22.647-16.738-49.231-42.338-64.985-65.969l-20.677-40.37v-0.984c-2.954 3.939-1.97 7.877-2.954 13.785-6.892 24.615-0.985 53.17-23.63 62.03-25.6 10.831-44.308-16.738-52.185-29.538-25.6-41.354-32.493-110.277-14.77-165.415 3.939-12.8 3.939-27.57 11.816-37.416-0.985-8.861-7.877-10.83-12.8-16.738-6.892-8.862-12.8-19.692-17.723-30.523-10.831-20.677-17.723-44.308-25.6-65.97-2.954-8.86-3.939-17.722-7.877-25.6-5.908-12.8-16.739-25.6-24.616-37.415-11.815-16.738-45.292-47.261-31.507-79.754 20.677-51.2 94.523-11.815 122.092 5.908 6.892 4.923 14.77 13.785 22.646 16.739l37.416 1.969c23.63 5.908 45.292 9.846 64 20.677 85.661 50.215 140.8 100.43 192.984 184.123 10.831 17.723 16.739 36.43 24.616 56.123 12.8 28.554 26.584 57.108 40.369 85.661 6.892 12.8 11.815 27.57 20.677 38.4 3.938 4.924 13.784 5.908 19.692 8.862 16.739 8.862 36.43 14.77 52.185 24.615 28.554 17.723 56.123 39.385 81.723 61.047 9.846 7.876 15.754 20.676 24.615 29.538v4.923c-7.877 1.97-15.754 4.923-23.63 6.892-17.724 4.923-32.493 2.954-50.216 7.877-9.846 2.954-22.646 6.893-34.462 7.877l0.985 0.985c6.892 17.723 41.354 32.492 57.108 44.308 19.692 13.784 37.415 30.523 52.184 49.23l14.77 14.77c2.953 4.923 3.938 10.83 7.877 15.753v0.985c-6.893-1.97-10.831-8.862-15.754-12.8-6.893-9.846-17.723-18.708-29.539-25.6z m-617.354-53.17h123.077c5.908 0 11.816 0 17.723 0.985 54.154 7.877 81.723 31.508 81.723 69.908v152.615c0 31.508-11.815 48.247-38.4 59.077l64 57.108h-75.815l-52.185-46.277-52.184 2.954h-68.923c-12.8 0-25.6-1.97-38.4-4.923-41.354-10.83-61.046-32.492-61.046-67.939V696.123c0-39.385 27.569-62.03 81.723-69.908 6.892-0.984 12.8-0.984 18.707-0.984z m-29.538 220.555c0 1.969 0.985 3.938 0.985 6.892 3.938 17.723 20.676 27.57 46.276 27.57h59.077L1314.462 832h75.815l47.261 42.338c8.862-4.923 14.77-11.815 16.739-20.676 0.985-1.97 0.985-3.939 0.985-5.908V701.046c0-1.97 0-3.938-0.985-5.908-3.939-16.738-20.677-25.6-45.292-25.6h-98.462c-28.554 0-47.261 12.8-47.261 31.508v144.739zM961.969 667.569c-22.646 1.97-29.538 5.908-33.477 18.708-0.984 1.97-0.984 3.938-0.984 4.923v29.538c0 1.97 0 3.939 0.984 5.908 2.954 17.723 15.754 25.6 41.354 25.6h78.77c19.692 0 39.384 2.954 55.138 9.846 30.523 11.816 46.277 28.554 46.277 47.262v47.261c0 22.647-13.785 40.37-41.354 53.17-16.739 7.877-38.4 12.8-60.062 12.8H862.523v-43.323h186.092c12.8-0.985 21.662-3.939 27.57-8.862 5.907-4.923 9.846-10.83 9.846-15.754v-37.415c0-3.939-1.97-8.862-4.923-11.816-5.908-7.877-14.77-10.83-35.446-12.8h-73.847c-5.907 0-12.8 0-18.707-0.984-55.139-5.908-88.616-30.523-88.616-59.077v-37.416c0-33.476 16.739-52.184 55.139-64 12.8-3.938 26.584-4.923 52.184-4.923h182.154v43.323H967.877c-1.97-1.969-3.939-1.969-5.908-1.969zM709.908 1011.2h-204.8v-43.323h204.8c41.354-3.939 36.43-24.615 36.43-31.508v-16.738H608.492c-64-0.985-105.354-28.554-105.354-60.062 0-2.954 0.985-142.769 0-144.738h64.985v139.815c-0.985 7.877 1.97 25.6 38.4 25.6h140.8v-166.4h64.985v228.43c0.984 56.124-69.908 68.924-102.4 68.924zM384.985 667.57L284.554 889.107c-11.816 26.584-27.57 36.43-59.077 36.43s-48.246-9.846-60.062-36.43L64.985 667.569V921.6H0V667.57c0-24.616 9.846-36.432 30.523-43.324 49.23-15.754 82.708-1.97 97.477 30.523l95.508 218.585 98.461-218.585c14.77-33.477 48.246-46.277 97.477-30.523 20.677 5.908 30.523 17.723 30.523 43.323V921.6h-64.984V667.57z m1235.692 179.2c0 22.645 14.77 32.492 52.185 32.492H1843.2v43.323h-169.354c-5.908 0-12.8 0-18.708-0.985-66.953-4.923-99.446-29.538-99.446-73.846V625.23h64.985v221.538z m301.292-16.74c25.6 0 48.246 18.708 48.246 47.262s-22.646 47.262-48.246 47.262-48.246-18.708-48.246-47.262 22.646-47.261 48.246-47.261z m0 84.678c20.677 0 37.416-15.754 37.416-37.416 0-21.661-16.739-37.415-37.416-37.415-20.677 0-37.415 15.754-37.415 37.415 0 21.662 16.738 37.416 37.415 37.416z m22.646-48.246c0 9.846-5.907 13.784-14.769 14.769l15.754 23.63h-10.83l-14.77-23.63h-8.862v23.63h-8.861v-54.153h21.661c13.785 0 20.677 3.938 20.677 15.754z m-32.492-8.862v15.754h9.846c6.893 0 12.8-0.985 12.8-7.877 0-5.908-6.892-6.892-11.815-6.892h-10.83v-0.985z" fill="" p-id="6997"></path></svg>