<?xml version="1.0" standalone="no"?><!DOCTYPE svg PUBLIC "-//W3C//DTD SVG 1.1//EN" "http://www.w3.org/Graphics/SVG/1.1/DTD/svg11.dtd"><svg t="1580704456525" class="icon" viewBox="0 0 1365 1024" version="1.1" xmlns="http://www.w3.org/2000/svg" p-id="1856" xmlns:xlink="http://www.w3.org/1999/xlink" width="266.6015625" height="200"><defs><style type="text/css"></style></defs><path d="M703.146667 228.352c0 47.786667 6.826667 95.573333 20.48 143.36 0 0 102.4 245.76 300.373333 307.2 54.613333-40.96 109.226667-88.746667 143.36-150.186667l6.826667-13.653333c6.826667-6.826667 6.826667-13.653333 13.653333-20.48l6.826667-13.653333c34.133333-75.093333 54.613333-157.013333 47.786666-252.586667 0-27.306667-6.826667-129.706667-20.48-163.84-40.96 13.653333-109.226667 61.44-129.706666 109.226667-75.093333-13.653333-163.84-6.826667-238.933334 0-13.653333-54.613333-75.093333-95.573333-122.88-116.053334-20.48 34.133333-27.306667 116.053333-27.306666 170.666667z M1324.373333 924.672c-27.306667-27.306667-75.093333-40.96-116.053333-40.96-20.48-20.48-102.4-116.053333-157.013333-163.84l-27.306667 20.48-20.48-6.826667c-211.626667-68.266667-320.853333-327.68-327.68-334.506666-150.186667 34.133333-307.2 129.706667-402.773333 225.28l-13.653334 20.48-20.48 20.48c-109.226667 122.88-191.146667 252.586667-191.146666 273.066666v13.653334h143.36v-13.653334c-6.826667-40.96 6.826667-95.573333 40.96-136.533333 20.48-27.306667 54.613333-54.613333 109.226666-68.266667 47.786667-13.653333 163.84 0 163.84 0 232.106667 20.48 450.56 116.053333 703.146667 245.76h136.533333v-6.826666c0-20.48-6.826667-34.133333-20.48-47.786667z M607.573333 835.925333c-13.653333-13.653333-40.96-13.653333-68.266666-6.826666-13.653333-13.653333-27.306667-34.133333-34.133334-61.44h-6.826666s-75.093333-6.826667-122.88-6.826667c40.96 34.133333 88.746667 75.093333 143.36 109.226667h109.226666v-13.653334s-6.826667-13.653333-20.48-20.48zM232.106667 603.818667l6.826666-13.653334 6.826667-6.826666c-27.306667-40.96-40.96-81.92-40.96-116.053334-6.826667-47.786667 0-95.573333 34.133333-129.706666 47.786667-61.44 109.226667-61.44 177.493334-54.613334 0 13.653333 0 20.48 6.826666 27.306667 20.48 27.306667 116.053333 40.96 170.666667 13.653333-40.96-61.44-129.706667-88.746667-150.186667-75.093333-6.826667 0-13.653333 6.826667-20.48 13.653333-20.48 0-47.786667-6.826667-61.44-6.826666-61.44 0-109.226667 27.306667-143.36 68.266666s-47.786667 95.573333-40.96 150.186667c6.826667 40.96 27.306667 88.746667 54.613334 129.706667z" p-id="1859"></path></svg>